PathFileType	4	(X/Y/Z)	C:\Users\Basilio\Documents\Thesis Gigler\squatting_fais\c3dfiles\058\SLS_back_pre4\markers_experimental.trc
DataRate	CameraRate	NumFrames	NumMarkers	Units	OrigDataRate	OrigDataStartFrame	OrigNumFrames
200.000000	200.000000	4	61	mm	200.000000	159	1279
Frame#	Time	FHD			LBHD			RBHD			C7			T10			CLAV			LSHO			LUUPA			LMUPA			LDUPA			LLEP			LMEP			LRAD			LUL			LRFIN			RSHO			RUPA1			RMUPA			RDUPA			RLEP			RMEP			RRAD			RUL			RUFIN			LASI			RASI			USACR			LSACR			RSACR			LTHI1			LTHI2			LTHI3			LTHI4			LLFC			LMFC			LTIB1			LTIB2			LTIB3			LTIB4			LLMAL			LMMAL			LHEE			LMT1			LMT2			LMT5			RTHI			RTHI2			RTHI3			RTHI4			RLFC			RMFC			RTIB1			RTIB2			RTIB3			RTIB4			RLMAL			RMMAL			RHEE			RMT1			RMT2			RMT5			
		X1	Y1	Z1	X2	Y2	Z2	X3	Y3	Z3	X4	Y4	Z4	X5	Y5	Z5	X6	Y6	Z6	X7	Y7	Z7	X8	Y8	Z8	X9	Y9	Z9	X10	Y10	Z10	X11	Y11	Z11	X12	Y12	Z12	X13	Y13	Z13	X14	Y14	Z14	X15	Y15	Z15	X16	Y16	Z16	X17	Y17	Z17	X18	Y18	Z18	X19	Y19	Z19	X20	Y20	Z20	X21	Y21	Z21	X22	Y22	Z22	X23	Y23	Z23	X24	Y24	Z24	X25	Y25	Z25	X26	Y26	Z26	X27	Y27	Z27	X28	Y28	Z28	X29	Y29	Z29	X30	Y30	Z30	X31	Y31	Z31	X32	Y32	Z32	X33	Y33	Z33	X34	Y34	Z34	X35	Y35	Z35	X36	Y36	Z36	X37	Y37	Z37	X38	Y38	Z38	X39	Y39	Z39	X40	Y40	Z40	X41	Y41	Z41	X42	Y42	Z42	X43	Y43	Z43	X44	Y44	Z44	X45	Y45	Z45	X46	Y46	Z46	X47	Y47	Z47	X48	Y48	Z48	X49	Y49	Z49	X50	Y50	Z50	X51	Y51	Z51	X52	Y52	Z52	X53	Y53	Z53	X54	Y54	Z54	X55	Y55	Z55	X56	Y56	Z56	X57	Y57	Z57	X58	Y58	Z58	X59	Y59	Z59	X60	Y60	Z60	X61	Y61	Z61	

160	0.795	-251.2144927978516	1793.450927734375	-631.0533447265626	-408.8897705078126	1755.9169921875	-711.2599487304689	-234.1440887451172	1798.926879882813	-774.8948974609377	-429.8747863769532	1588.5361328125	-727.7531127929689	-433.2653198242189	1279.715576171875	-717.6224975585939	-272.9593811035157	1538.950439453125	-706.3656616210939	-276.0790405273438	1583.856323242188	-878.9139404296877	-259.8210449218751	1375.138671875	-997.8901367187502	-211.2916412353516	1381.922729492188	-999.395690917969	-216.3307800292969	1321.842651367188	-1007.984375	-173.0310668945313	1267.06298828125	-1014.980529785156	-193.9066619873047	1230.186767578125	-958.7449951171877	28.92778778076173	1077.317749023438	-978.8433227539065	4.344914436340333	1071.002685546875	-1057.295776367188	106.8733367919922	1018.231567382813	-1010.094543457031	-310.4595336914063	1580.236572265625	-531.7714233398439	-296.9186401367188	1357.372680664063	-424.0237731933595	-248.1994628906251	1362.512451171875	-428.9649047851564	-252.6431732177735	1304.926025390625	-414.4464416503907	-227.1483612060547	1243.534057617188	-414.4956359863282	-238.7186737060547	1209.242797851563	-488.7012329101564	-19.08644104003907	1057.528564453125	-434.884979248047	-52.76943969726564	1049.56689453125	-361.9714050292969	45.58552932739259	1003.333984375	-395.3020629882814	-255.3158416748047	1085.262329101563	-858.1925048828127	-245.0267791748047	1076.173950195313	-615.3688354492189	-443.6349487304689	1158.671752929688	-717.0196533203126	-450.8479614257814	1127.476806640625	-745.8862915039064	-445.8976440429689	1125.109985351563	-688.0853881835939	-257.0031738281251	812.4205322265627	-960.9653320312502	-211.9254150390626	740.0957641601564	-965.5334472656252	-168.001953125	746.3862915039064	-941.222595214844	-230.1732635498047	682.9259033203126	-965.611511230469	-226.1618347167969	592.0729980468751	-965.564880371094	-196.4543151855469	564.6537475585939	-842.514587402344	-226.6252136230469	447.6318359375001	-955.4255981445315	-298.7061767578126	449.2756958007814	-1001.298522949219	-266.2019042968751	422.2331542968751	-988.2857666015627	-299.7182617187501	345.3498535156251	-972.114440917969	-447.7687377929689	196.2864532470704	-991.043884277344	-404.5083618164064	193.4130401611329	-909.532165527344	-509.453582763672	172.4946899414063	-930.0464477539065	-296.6709594726563	108.9219284057617	-958.8646240234377	-301.3683776855469	113.1864852905274	-1005.138061523438	-362.7653503417969	104.3765411376953	-1047.135986328125	-344.4359436035157	861.9929809570315	-558.9949340820314	-307.3056335449219	807.049987792969	-565.9769287109376	-275.2343444824219	807.8726196289065	-569.6607666015626	-336.6058349609376	730.7387084960939	-585.2748413085939	-332.3721923828126	549.0490112304689	-619.1404418945314	-302.3597412109376	548.7715454101564	-752.8802490234376	-292.9403381347657	351.5400390625001	-724.3200683593751	-330.7896423339844	268.8250122070313	-663.6859130859376	-297.2028198242188	264.0520324707032	-698.6099853515626	-310.6047668457032	223.5862274169922	-736.8373413085939	-372.3982238769532	117.1119155883789	-703.6904296875001	-343.9598083496094	141.7397003173828	-791.0958251953127	-438.7620239257814	100.7705307006836	-765.5310668945314	-228.9045104980469	59.55055236816408	-778.1494140625002	-223.1006927490235	60.31517791748048	-725.9338989257814	-273.2862548828126	29.38977622985841	-673.6861572265626	
161	0.8	-251.3054809570313	1793.479614257813	-631.0409545898439	-409.0512084960939	1755.952758789063	-711.0797119140626	-234.3864440917969	1798.971313476563	-774.7066650390627	-430.0371093750001	1588.587524414063	-727.5892333984376	-433.6389770507814	1279.733276367188	-717.4022827148439	-273.2230529785157	1539.062133789063	-706.1515502929689	-276.2659912109376	1584.012451171875	-878.580261230469	-258.1959228515626	1376.07080078125	-997.4747314453127	-209.4218139648438	1383.284790039063	-999.1812744140627	-213.9055786132813	1323.532470703125	-1007.971923828125	-169.6900329589844	1269.1875	-1014.758422851563	-190.4715118408203	1231.970092773438	-958.9268798828127	34.67055130004884	1081.885375976563	-978.2546997070315	10.44988059997559	1075.522827148438	-1056.813598632813	113.693473815918	1023.869567871094	-1009.439331054688	-310.6695556640626	1580.380615234375	-531.7136230468751	-295.0307617187501	1358.095703125	-423.4327087402345	-246.0664062500001	1363.918823242188	-428.579315185547	-250.0007324218751	1306.242553710938	-413.7441406250001	-223.7917938232422	1245.360717773438	-413.7512512207032	-235.1842041015626	1210.650268554688	-487.5974426269532	-13.73809051513672	1061.800170898438	-434.1709289550782	-47.07298660278321	1053.867553710938	-361.1364440917969	52.04623413085939	1008.898010253906	-394.386688232422	-255.8225250244141	1085.297607421875	-857.9739990234377	-245.2492065429688	1076.162353515625	-615.1444702148439	-444.0650634765626	1158.811279296875	-716.7072143554689	-451.2929992675782	1127.608520507813	-745.6069335937501	-446.2837829589845	1125.200317382813	-687.9086914062501	-256.7678222656251	812.733581542969	-960.7427978515627	-211.2862396240235	740.4513549804689	-965.3773193359377	-167.2454223632813	747.0841064453126	-941.1918945312502	-229.2263488769532	683.3090209960939	-965.3645629882815	-225.0563659667969	592.5732421875001	-965.2731933593752	-195.3256072998047	565.3414916992189	-842.1992187500002	-226.9626617431641	448.1603088378907	-954.5968017578127	-299.1756896972657	450.6344604492189	-1000.373840332031	-266.8225708007813	423.2214355468751	-987.4880371093752	-301.5842285156251	346.9828186035157	-970.8660278320315	-450.5944213867189	199.5172271728516	-988.9718017578127	-407.3718566894532	196.289291381836	-907.5804443359377	-512.7911376953126	176.2760467529297	-927.6094970703127	-300.5123901367188	110.9662017822266	-957.4118652343752	-305.6835021972657	114.4355621337891	-1003.990051269531	-367.2944335937501	106.8625717163086	-1045.390869140625	-345.0504455566407	861.8584594726565	-558.9151611328126	-308.3159484863282	807.5256347656252	-565.1068725585939	-275.4033813476563	807.944763183594	-569.7252197265626	-337.0510559082032	730.5702514648439	-585.1897583007814	-332.6193847656251	549.0150146484376	-618.9780883789064	-302.2316589355469	548.7553100585939	-752.6654052734376	-292.9912719726563	351.5720825195313	-724.1989135742189	-330.9814147949219	268.7968139648438	-663.6012573242189	-297.5401000976563	264.0971984863282	-698.3539428710939	-310.6638488769532	223.5444641113282	-736.7138061523439	-372.5029602050782	117.0940704345703	-703.6065673828126	-343.9059143066407	141.77685546875	-790.9451904296877	-438.7601013183595	100.8306884765625	-765.4876708984376	-228.9651947021485	59.63590621948244	-778.1166992187502	-223.1250915527344	60.26666641235353	-725.9230346679689	-273.2525329589844	29.40004348754884	-673.6352539062501	
162	0.805	-251.5631561279297	1793.366455078125	-630.9360961914064	-409.5163879394532	1756.04638671875	-710.7326660156251	-234.6327362060547	1798.981689453125	-774.5341796875002	-430.323455810547	1588.67626953125	-727.3961791992189	-433.9622802734376	1279.828735351563	-717.1007690429689	-273.5151977539063	1539.178833007813	-705.8854370117189	-276.7981872558594	1584.336791992188	-878.1892089843752	-255.7125701904297	1376.946044921875	-997.3364257812502	-207.2397613525391	1384.730224609375	-998.9104003906252	-211.2475128173829	1325.000366210938	-1007.760925292969	-166.3238983154297	1271.324340820313	-1014.6640625	-186.7118377685547	1233.528564453125	-958.889343261719	40.53975296020509	1086.426025390625	-977.8046875000002	16.71044540405274	1080.146484375	-1056.2060546875	120.4208755493164	1029.90478515625	-1008.907836914063	-310.8613281250001	1580.567504882813	-531.5080566406251	-293.3169555664063	1358.80419921875	-423.1943359375001	-244.6320343017579	1365.198608398438	-427.9594726562501	-247.6403961181641	1307.860473632813	-413.0681152343751	-220.4904174804688	1247.072998046875	-413.0017395019532	-231.6921386718751	1212.06396484375	-486.8046264648439	-8.053795814514162	1066.182983398438	-433.5479736328126	-41.26979446411134	1057.852294921875	-360.1201782226563	58.35708236694337	1014.227111816406	-393.6519470214845	-256.3299255371094	1085.449584960938	-857.7885742187502	-245.6260986328126	1076.283813476563	-615.0035400390626	-444.3463439941407	1158.904174804688	-716.4478149414064	-451.6703491210939	1127.81591796875	-745.3449707031251	-446.6306762695314	1125.29345703125	-687.7229614257814	-256.4947204589844	813.0678710937502	-960.528015136719	-210.2148895263672	740.9069824218751	-965.3613891601565	-166.9419097900391	747.9766845703126	-941.3997192382815	-228.3614501953126	683.6651611328126	-965.1087646484377	-224.1095123291016	593.0482177734376	-964.8770751953127	-194.3908843994141	566.2005615234376	-841.7846679687502	-227.2601776123047	448.9285888671876	-953.8006591796877	-299.5497741699219	452.0961914062501	-999.3625488281252	-267.6168518066407	424.5206298828126	-986.5125732421877	-302.7329711914063	348.6080932617188	-969.6925048828127	-454.017059326172	202.9849090576172	-986.6909790039065	-410.3353576660157	199.1724548339844	-905.5747070312502	-515.9935302734376	180.275863647461	-925.087585449219	-304.7604370117188	112.6959228515625	-956.0709228515627	-310.1070251464844	116.4700546264649	-1002.545166015625	-371.8999023437501	109.5492477416992	-1043.5439453125	-345.4433288574219	861.773620605469	-558.8700561523439	-308.2691955566407	807.4141845703127	-565.6784057617189	-276.2103881835938	808.3601074218752	-568.9825439453126	-337.5942687988282	730.6021118164064	-585.1435546875001	-333.0922241210938	549.0434570312501	-618.8029785156251	-302.1597900390626	548.6888427734376	-752.3382568359376	-292.9825134277344	351.6151428222657	-724.0476684570314	-331.0399780273438	268.8408203125001	-663.5226440429689	-297.7026672363282	264.2017822265626	-698.2741699218751	-310.7329101562501	223.4974517822266	-736.5135498046876	-372.5658874511719	117.093002319336	-703.5587768554689	-343.9007873535157	141.7677764892578	-790.834411621094	-438.7425537109376	100.8308944702149	-765.5209960937501	-228.8992767333985	59.57900619506837	-778.0925292968752	-223.1439208984376	60.27173614501955	-725.9080810546876	-273.2474060058594	29.38502883911134	-673.6564941406251	
163	0.8100000000000001	-251.6653137207032	1793.433837890625	-631.0375366210939	-410.2185668945314	1755.951538085938	-710.3456420898439	-234.8601531982422	1799.030883789063	-774.3276367187502	-430.4737243652345	1588.749267578125	-727.1978149414064	-434.2788391113282	1279.98291015625	-716.7395629882814	-273.7121582031251	1539.246215820313	-705.7167358398439	-277.2928466796876	1584.420043945313	-877.8784790039065	-253.9886627197266	1378.159545898438	-997.2142333984377	-205.0011138916016	1386.83349609375	-998.003356933594	-208.3005676269532	1326.64404296875	-1007.404663085938	-162.8916625976563	1273.4755859375	-1014.495910644531	-182.3182525634766	1235.586547851563	-958.5925903320315	46.31175613403321	1091.421630859375	-977.270690917969	22.67211151123047	1084.667846679688	-1055.732788085938	126.9683380126953	1035.647216796875	-1008.125610351563	-311.1676025390626	1580.671508789063	-531.4630126953126	-291.1910095214844	1360.010498046875	-422.8237304687501	-242.6552124023438	1366.486938476563	-427.5173339843751	-245.1637725830079	1308.887939453125	-412.6131591796876	-217.1970520019532	1248.94091796875	-412.1056518554689	-228.0690612792969	1213.523315429688	-485.7243652343751	-2.561116933822632	1070.6103515625	-432.9672241210939	-35.24575424194337	1062.18701171875	-359.4607543945313	64.84854125976564	1019.841674804688	-393.0870056152345	-256.6327514648438	1085.489990234375	-857.6018676757815	-246.2586364746094	1076.173950195313	-614.6876831054689	-444.6345520019532	1159.015380859375	-716.2462768554689	-452.1121826171876	1127.9736328125	-745.0317993164064	-447.0709228515626	1125.452758789063	-687.3798828125001	-256.1651611328126	813.340759277344	-960.3297119140627	-209.4451599121094	741.4666137695314	-965.2574462890627	-166.2715301513672	748.6444702148439	-941.3103027343752	-227.4126586914063	684.1083374023439	-964.9492187500002	-223.0174255371094	593.4248657226564	-964.3876953125002	-192.8428192138672	566.8253784179689	-841.2738037109377	-227.8095397949219	449.9592285156251	-953.2185058593752	-300.2075195312501	453.887176513672	-998.3089599609377	-268.2522583007813	425.693084716797	-985.632995605469	-304.4463806152344	350.3115234375001	-968.5335693359377	-457.4404602050782	206.4508056640626	-984.488708496094	-413.6294555664064	202.1282806396485	-903.6293945312502	-519.3828735351564	184.6157684326172	-922.5880126953127	-309.0314025878907	114.6726608276367	-954.405212402344	-314.3372192382813	118.4189071655274	-1001.056945800781	-376.8133850097657	112.2528152465821	-1041.858032226563	-345.6864318847657	861.8433837890627	-558.9593505859376	-308.7319030761719	807.4075317382815	-565.6703491210939	-276.5950927734376	808.304626464844	-569.0852661132814	-338.0423278808594	730.6272583007814	-585.0470581054689	-333.5133972167969	549.0727539062501	-618.6382446289064	-304.2880859375001	548.1836547851564	-753.2377929687501	-292.9884643554688	351.6557006835938	-723.9024658203126	-331.1215515136719	268.8702392578126	-663.4206542968751	-297.7751464843751	264.2164611816407	-698.1113891601564	-310.7772521972657	223.6158142089844	-736.3789672851564	-372.6212768554688	117.097526550293	-703.5105590820314	-343.8532104492188	141.8021087646485	-790.743347167969	-438.8319702148439	100.8893585205078	-765.4667968750001	-228.8379669189454	59.5861282348633	-778.1063232421877	-223.0827331542969	60.2615203857422	-725.9058837890626	-273.2774658203126	29.34375572204591	-673.6276245117189	
